<svg id="Camada_1" data-name="Camada 1" xmlns="http://www.w3.org/2000/svg" viewBox="0 0 841.89 197.37"><defs><style>.cls-1{fill:#fff;}</style></defs><path class="cls-1" d="M733.57,127H718.51V73.52c.6,0,1.16-.08,1.72-.08,6.82,0,13.64,0,20.46,0a2.42,2.42,0,0,1,2.5,1.6q8,15.84,16.13,31.63c.19.36.43.7.78,1.27l5.29-10.31c4-7.69,7.88-15.39,11.87-23.06a2.13,2.13,0,0,1,1.44-1c7.45-.06,14.9,0,22.35,0a4.46,4.46,0,0,1,.68.12v53.32H786.56V89.19l-.35-.1c-.27.47-.57.93-.82,1.41Q776,108,766.74,125.6a2.3,2.3,0,0,1-2.42,1.47q-4.32-.15-8.66,0a2.16,2.16,0,0,1-2.27-1.4Q744.08,108,734.68,90.41a4.6,4.6,0,0,0-1.11-1.47Z"/><path class="cls-1" d="M418.28,88.32v36.44c0,2.13,0,2.13-2.2,2.13-3.83,0-7.66,0-11.49,0-1.16,0-1.55-.34-1.55-1.52q0-25.17,0-50.34c0-1.1.37-1.46,1.46-1.46q10.62,0,21.24,0a2.79,2.79,0,0,1,2.4,1.46q13.13,17.46,26.29,34.9a10.14,10.14,0,0,0,2.3,2.34c.05-.62.16-1.24.16-1.87q0-17.39,0-34.77c0-2,0-2,2.1-2,3.88,0,7.76,0,11.65,0,1.06,0,1.48.3,1.48,1.42q0,25.26,0,50.51c0,1.15-.48,1.4-1.51,1.39-7.08,0-14.16,0-21.24-.07a3.16,3.16,0,0,1-2.16-1.15Q433.78,108,420.43,90.16c-.52-.69-1.08-1.35-1.62-2Z"/><path class="cls-1" d="M502.87,109.46H518.5c.08.47.18,1,.23,1.46.34,3,1.56,4.36,4.52,4.4,7.76.11,15.52.13,23.28,0,3.49-.06,4.83-1.71,4.77-5,0-1.62-.71-2.82-2.29-3.15a37.07,37.07,0,0,0-6.35-.9c-7-.2-14.06-.09-21.07-.41a64.42,64.42,0,0,1-11.31-1.57c-4.28-1-6.56-4.07-6.83-8.37a93.93,93.93,0,0,1,0-11.13c.31-5.3,3.34-8.72,8.4-9.88a58.39,58.39,0,0,1,11.65-1.37c8.38-.18,16.78-.12,25.17.06a39.44,39.44,0,0,1,8.2,1.22c4.56,1.11,7.39,4,8,8.77.31,2.21.34,4.46.51,6.84H549.8c-.07-.57-.12-1.08-.21-1.59a3.53,3.53,0,0,0-3.21-3.33,23,23,0,0,0-3.6-.35q-9,0-18.09,0a12.18,12.18,0,0,0-3,.39,3.74,3.74,0,0,0-3,4.18c.09,2.22.93,3.34,3.32,3.63,3,.37,6.05.54,9.08.62,6.87.17,13.74.14,20.6.39A36.83,36.83,0,0,1,559,95.54a9.77,9.77,0,0,1,7.82,8.27,37.39,37.39,0,0,1,0,13.75,9.43,9.43,0,0,1-7.95,8.09,71.08,71.08,0,0,1-12,1.32c-9.6.17-19.2.11-28.8-.06a29.63,29.63,0,0,1-7.55-1.28,9.34,9.34,0,0,1-7.06-8.17C503.08,114.88,503.06,112.25,502.87,109.46Z"/><path class="cls-1" d="M716,127h-9.5c-2.15,0-4.3,0-6.45,0a1.8,1.8,0,0,1-1.95-1.15c-1.13-2.35-2.43-4.64-3.53-7a2,2,0,0,0-2.17-1.32q-14.48.06-28.95,0a1.79,1.79,0,0,0-1.9,1.21c-1.08,2.39-2.22,4.74-3.42,7.07-.24.48-.82,1.12-1.25,1.12-5.44.08-10.89,0-16.59,0a14.35,14.35,0,0,1,.54-1.38Q654,100.1,667.11,74.54a1.74,1.74,0,0,1,1.8-1.12q9,0,17.94,0a1.78,1.78,0,0,1,1.84,1.08q13.35,25.62,26.74,51.22C715.6,126,715.72,126.38,716,127Zm-28-21.1c-3.38-6.72-6.67-13.25-10.12-20.09-3.35,6.86-6.54,13.39-9.82,20.09Z"/><path class="cls-1" d="M573.73,73.5h15.49c0,.67,0,1.28,0,1.88,0,10,0,20,.09,30.06,0,5.4,2.67,8,8.08,8,5.25.07,10.5,0,15.75,0,6.69,0,9.2-2.51,9.21-9.24q0-14.4,0-28.8V73.53h15.36a10.51,10.51,0,0,1,.15,1.21c0,11.75.2,23.51-.13,35.25-.31,11.21-6.84,16.39-16.87,16.86s-20.15.29-30.21,0c-5.37-.14-10.33-1.9-13.71-6.54a18.09,18.09,0,0,1-3.25-10.66c-.12-11.81-.06-23.61-.07-35.41A6.65,6.65,0,0,1,573.73,73.5Z"/><path class="cls-1" d="M331.6,92.61c0-5.72,0-11.43,0-17.15,0-1.45.43-1.92,1.88-1.89q5.9.12,11.8,0c1.29,0,1.59.46,1.59,1.66q-.06,14.4,0,28.79a17.85,17.85,0,0,0,.5,4.19c.91,3.55,3.13,5.32,6.79,5.36q9.38.09,18.73,0c4.22,0,6.82-2.51,7.24-6.74.15-1.62.23-3.24.24-4.87,0-8.81,0-17.62,0-26.43,0-1.51.43-2,2-2,3.88.1,7.76.07,11.64,0,1.34,0,1.68.46,1.68,1.73,0,11.17.08,22.35-.07,33.52-.07,5.35-1.32,10.43-5.77,14a18.91,18.91,0,0,1-12,4c-9.54.15-19.1.11-28.64,0a20.4,20.4,0,0,1-9.22-2.31,14,14,0,0,1-7.86-12.1c-.39-6.58-.1-13.2-.1-19.8Z"/><path class="cls-1" d="M495.73,100.31v24.52c0,2,0,2-2.12,2-3.88,0-7.76,0-11.63,0-1.07,0-1.49-.29-1.49-1.42q0-25.23,0-50.47c0-1.1.38-1.45,1.46-1.44,4,.05,8.08.07,12.11,0,1.32,0,1.69.44,1.68,1.73C495.71,83.64,495.73,92,495.73,100.31Z"/><path class="cls-1" d="M135.71,127.37c-10.81,19.34-26.88,29.34-48.95,28.19-14.27-.75-26.18-7.08-35.14-18.23-11.15-13.86-14.23-29.64-8.94-46.6S59.81,63,76.59,57.39A153.46,153.46,0,0,1,44.23,40.06c1.26-1.79,2.43-3.48,3.61-5.15C49.91,32,52,29.07,54,26.1c.58-.85,1-1,1.95-.47C62.4,29,68.8,32.39,75.36,35.45a154.49,154.49,0,0,0,27.29,9.74c6.61,1.69,13.29,3.17,20,4.36A135.89,135.89,0,0,0,145,51.71c3.38,0,6.77.33,10.13.13,6.73-.39,13.48-.8,20.17-1.65,24.82-3.14,48-11.31,69.77-23.49,1-.53,2.05-1.51,2.9-1.35s1.28,1.57,1.88,2.45q4,5.94,8,11.9a2.42,2.42,0,0,1,.13.41,124.43,124.43,0,0,1-15.46,9.51c-5.41,2.77-11,5.28-16.37,7.87C249,66,261.83,82.17,262,107.05c.07,13.58-5.42,25.38-15.35,34.75-12.14,11.46-26.67,15.91-43.12,13.14s-28.37-12.19-36.54-27.13c-5.2,16-10.27,31.67-15.35,47.32l-.36.07C146.09,159.34,140.94,143.47,135.71,127.37Zm109.5-21.56A33.22,33.22,0,1,0,212,138.93,33.18,33.18,0,0,0,245.21,105.81Zm-188-.17a33.2,33.2,0,1,0,33.34-33.1A33,33,0,0,0,57.17,105.64ZM165.5,68.87a107.17,107.17,0,0,1-28.68,0l14.12,56.71.46-.05C156.07,106.81,160.73,88.05,165.5,68.87Z"/><path class="cls-1" d="M212,91.72a14,14,0,1,1-14.07,13.9A14,14,0,0,1,212,91.72Z"/><path class="cls-1" d="M104.33,105.8a14,14,0,1,1-28-.29,14.09,14.09,0,0,1,14.06-13.8A13.91,13.91,0,0,1,104.33,105.8Z"/></svg>